<svg width="127" height="25" viewBox="0 0 127 25" fill="none" xmlns="http://www.w3.org/2000/svg">
<path d="M5.75049 0.539062L10.6489 11.2383L15.5474 0.539062H20.8164L13.0981 15.46V24H8.19971V15.46L0.465332 0.539062H5.75049ZM27.7935 0.539062V24H22.9595V0.539062H27.7935ZM41.8442 0.539062L32.5469 12.1245L27.1812 17.8931L26.311 13.3169L29.9365 8.354L35.9146 0.539062H41.8442ZM36.3496 24L29.437 13.1558L33.0142 10.1587L42.0698 24H36.3496ZM56.4106 10.2876V24H51.77V6.56543H56.1206L56.4106 10.2876ZM55.7339 14.6704H54.4771C54.4771 13.3813 54.6436 12.2212 54.9766 11.1899C55.3096 10.1479 55.7769 9.26172 56.3784 8.53125C56.98 7.79004 57.6943 7.22607 58.5215 6.83936C59.3594 6.44189 60.2939 6.24316 61.3252 6.24316C62.1416 6.24316 62.8882 6.36133 63.5649 6.59766C64.2417 6.83398 64.8218 7.20996 65.3052 7.72559C65.7993 8.24121 66.1753 8.92334 66.4331 9.77197C66.7017 10.6206 66.8359 11.6572 66.8359 12.8818V24H62.1631V12.8657C62.1631 12.0923 62.0557 11.4907 61.8408 11.061C61.626 10.6313 61.3091 10.3306 60.8901 10.1587C60.4819 9.97607 59.9771 9.88477 59.3755 9.88477C58.7524 9.88477 58.21 10.0083 57.748 10.2554C57.2969 10.5024 56.9209 10.8462 56.6201 11.2866C56.3301 11.7163 56.1099 12.2212 55.9595 12.8013C55.8091 13.3813 55.7339 14.0044 55.7339 14.6704ZM78.3892 24.3223C77.0356 24.3223 75.8218 24.1074 74.7476 23.6777C73.6733 23.2373 72.7603 22.6304 72.0083 21.8569C71.2671 21.0835 70.6978 20.1865 70.3003 19.166C69.9028 18.1348 69.7041 17.0391 69.7041 15.8789V15.2344C69.7041 13.9131 69.8921 12.7046 70.2681 11.6089C70.644 10.5132 71.1812 9.5625 71.8794 8.75684C72.5884 7.95117 73.4478 7.3335 74.4575 6.90381C75.4673 6.46338 76.606 6.24316 77.8735 6.24316C79.1089 6.24316 80.2046 6.44727 81.1606 6.85547C82.1167 7.26367 82.917 7.84375 83.5615 8.5957C84.2168 9.34766 84.7109 10.25 85.0439 11.3027C85.377 12.3447 85.5435 13.5049 85.5435 14.7832V16.7168H71.686V13.623H80.9834V13.2686C80.9834 12.624 80.8652 12.0493 80.6289 11.5444C80.4033 11.0288 80.0596 10.6206 79.5977 10.3198C79.1357 10.019 78.5449 9.86865 77.8252 9.86865C77.2129 9.86865 76.6865 10.0029 76.2461 10.2715C75.8057 10.54 75.4458 10.916 75.1665 11.3994C74.8979 11.8828 74.6938 12.4521 74.5542 13.1074C74.4253 13.752 74.3608 14.4609 74.3608 15.2344V15.8789C74.3608 16.5771 74.4575 17.2217 74.6509 17.8125C74.855 18.4033 75.1396 18.9136 75.5049 19.3433C75.8809 19.7729 76.332 20.106 76.8584 20.3423C77.3955 20.5786 78.0024 20.6968 78.6792 20.6968C79.5171 20.6968 80.2959 20.5356 81.0156 20.2134C81.7461 19.8804 82.3745 19.3809 82.9009 18.7148L85.1567 21.1641C84.7915 21.6904 84.292 22.1953 83.6582 22.6787C83.0352 23.1621 82.2832 23.5596 81.4023 23.8711C80.5215 24.1719 79.5171 24.3223 78.3892 24.3223ZM93.165 19.4883L96.7905 6.56543H99.7393L98.7886 11.6411L95.1631 24H92.6978L93.165 19.4883ZM91.3281 6.56543L93.9224 19.4722L94.1641 24H91.2637L86.8486 6.56543H91.3281ZM103.059 19.2627L105.588 6.56543H110.084L105.669 24H102.785L103.059 19.2627ZM100.142 6.56543L103.751 19.3916L104.251 24H101.77L98.144 11.6572L97.2256 6.56543H100.142ZM121.847 19.1821C121.847 18.8491 121.75 18.5483 121.557 18.2798C121.363 18.0112 121.003 17.7642 120.477 17.5386C119.961 17.3022 119.215 17.0874 118.237 16.894C117.356 16.7007 116.535 16.459 115.772 16.1689C115.02 15.8682 114.365 15.5083 113.806 15.0894C113.258 14.6704 112.829 14.1763 112.517 13.6069C112.206 13.0269 112.05 12.3662 112.05 11.625C112.05 10.8945 112.206 10.207 112.517 9.5625C112.839 8.91797 113.296 8.34863 113.887 7.85449C114.488 7.34961 115.219 6.95752 116.078 6.67822C116.948 6.38818 117.926 6.24316 119.011 6.24316C120.525 6.24316 121.825 6.48486 122.91 6.96826C124.006 7.45166 124.844 8.11768 125.424 8.96631C126.015 9.8042 126.31 10.7603 126.31 11.8345H121.669C121.669 11.3833 121.573 10.9805 121.379 10.626C121.197 10.2607 120.907 9.97607 120.509 9.77197C120.123 9.55713 119.618 9.44971 118.995 9.44971C118.479 9.44971 118.033 9.54102 117.657 9.72363C117.281 9.89551 116.991 10.1318 116.787 10.4326C116.594 10.7227 116.497 11.0449 116.497 11.3994C116.497 11.668 116.551 11.9097 116.658 12.1245C116.776 12.3286 116.964 12.5166 117.222 12.6885C117.48 12.8604 117.813 13.0215 118.221 13.1719C118.64 13.3115 119.156 13.4404 119.768 13.5586C121.025 13.8164 122.147 14.1548 123.136 14.5737C124.124 14.9819 124.908 15.5405 125.488 16.2495C126.068 16.9478 126.358 17.8662 126.358 19.0049C126.358 19.7783 126.187 20.4873 125.843 21.1318C125.499 21.7764 125.005 22.3403 124.36 22.8237C123.716 23.2964 122.942 23.667 122.04 23.9355C121.148 24.1934 120.144 24.3223 119.027 24.3223C117.405 24.3223 116.03 24.0322 114.902 23.4521C113.785 22.8721 112.936 22.1362 112.356 21.2446C111.787 20.3423 111.502 19.4185 111.502 18.4731H115.901C115.922 19.1069 116.083 19.6172 116.384 20.0039C116.696 20.3906 117.088 20.6699 117.561 20.8418C118.044 21.0137 118.565 21.0996 119.124 21.0996C119.725 21.0996 120.225 21.019 120.622 20.8579C121.02 20.686 121.32 20.4604 121.524 20.1812C121.739 19.8911 121.847 19.5581 121.847 19.1821Z" fill="#E1E1E6"/>
</svg>
